<svg width="12" height="16" viewBox="0 0 12 16" fill="none" xmlns="http://www.w3.org/2000/svg">
<path d="M5.99997 7.8769e-06C4.41289 -0.00255903 2.88967 0.626542 1.76473 1.74918C0.639797 2.87183 0.00510107 4.39625 0 5.98774C0 9.5997 3.756 14.0132 5.32581 15.6937C5.40899 15.7898 5.51179 15.8669 5.62727 15.9198C5.74275 15.9726 5.86821 16 5.99515 16C6.12209 16 6.24755 15.9726 6.36303 15.9198C6.47851 15.8669 6.58131 15.7898 6.66449 15.6937C8.22467 13.9746 11.9999 9.43552 11.9999 6.03603C12.0037 5.24393 11.8513 4.45889 11.5514 3.7261C11.2514 2.99331 10.8099 2.32724 10.2523 1.76624C9.6946 1.20523 9.03181 0.760363 8.30202 0.45724C7.57224 0.154117 6.78987 -0.00127484 5.99997 7.8769e-06ZM5.99997 8.74017C5.4571 8.74017 4.92643 8.57874 4.47505 8.2763C4.02368 7.97386 3.67188 7.54399 3.46413 7.04105C3.25639 6.53811 3.20203 5.98469 3.30794 5.45077C3.41385 4.91685 3.67526 4.42642 4.05912 4.04148C4.44299 3.65655 4.93206 3.39441 5.46449 3.2882C5.99692 3.182 6.5488 3.23651 7.05034 3.44483C7.55188 3.65316 7.98056 4.00594 8.28216 4.45858C8.58375 4.91121 8.74473 5.44336 8.74473 5.98774C8.7422 6.71695 8.4522 7.41556 7.938 7.93119C7.42381 8.44682 6.72714 8.73762 5.99997 8.74017Z" fill="white"/>
</svg>
