<svg width="12" height="14" viewBox="0 0 12 14" fill="none" xmlns="http://www.w3.org/2000/svg">
<path d="M5.99997 6.89229e-06C4.61128 -0.00223915 3.27846 0.548224 2.29414 1.53054C1.30982 2.51285 0.754463 3.84672 0.75 5.23927C0.75 8.39974 4.0365 12.2616 5.41009 13.732C5.48286 13.8161 5.57282 13.8836 5.67386 13.9298C5.77491 13.9761 5.88468 14 5.99576 14C6.10683 14 6.2166 13.9761 6.31765 13.9298C6.41869 13.8836 6.50865 13.8161 6.58143 13.732C7.94659 12.2278 11.2499 8.25608 11.2499 5.28153C11.2533 4.58843 11.1199 3.90152 10.8574 3.26034C10.595 2.61915 10.2087 2.03634 9.72072 1.54546C9.23277 1.05458 8.65283 0.665317 8.01427 0.400085C7.37571 0.134853 6.69114 -0.00111548 5.99997 6.89229e-06ZM5.99997 7.64765C5.52496 7.64765 5.06063 7.5064 4.66567 7.24176C4.27072 6.97713 3.96289 6.60099 3.78111 6.16092C3.59934 5.72085 3.55178 5.2366 3.64445 4.76942C3.73711 4.30225 3.96585 3.87311 4.30173 3.5363C4.63761 3.19948 5.06555 2.97011 5.53143 2.87718C5.99731 2.78425 6.4802 2.83194 6.91905 3.01423C7.3579 3.19651 7.73299 3.5052 7.99689 3.90125C8.26079 4.29731 8.40164 4.76294 8.40164 5.23927C8.39942 5.87733 8.14567 6.48861 7.69575 6.93979C7.24583 7.39097 6.63625 7.64542 5.99997 7.64765Z" fill="white"/>
</svg>
