<svg width="15" height="16" viewBox="0 0 15 16" fill="none" xmlns="http://www.w3.org/2000/svg">
<path fill-rule="evenodd" clip-rule="evenodd" d="M13.4944 10.4955C12.3944 9.8173 11.1869 9.76768 10.8892 10.1729C10.4554 10.6243 10.0903 11.1371 9.80573 11.6947C9.73842 11.7818 9.64183 11.8415 9.53385 11.8628C9.42588 11.8841 9.31385 11.8655 9.21853 11.8105C8.16537 11.2513 7.20782 10.5283 6.38175 9.66843C5.5443 8.83648 4.8412 7.87947 4.29758 6.83165C4.24258 6.73633 4.22401 6.6243 4.2453 6.51632C4.26659 6.40835 4.3263 6.31176 4.41337 6.24445C4.96774 5.96805 5.4801 5.61441 5.93514 5.19409C6.34039 4.89636 6.29077 3.68886 5.61259 2.58889C4.93441 1.48891 3.95849 0.93479 3.49535 1.1002C3.09103 1.21015 2.72114 1.4207 2.42018 1.71222C1.92174 2.09202 1.53709 2.60133 1.30813 3.18466C1.07917 3.76799 1.01469 4.40297 1.12171 5.02041C1.37463 6.41351 1.90022 7.74293 2.6683 8.93236C3.23284 9.83489 3.90185 10.6677 4.66148 11.4135C5.40946 12.1707 6.24197 12.8395 7.14263 13.4067C8.33085 14.1771 9.66076 14.7029 11.0546 14.9533C11.672 15.0584 12.3063 14.9931 12.8893 14.7643C13.4723 14.5354 13.9817 14.1518 14.3628 13.6548C14.6523 13.3524 14.8626 12.983 14.9748 12.5796C15.1319 12.1496 14.553 11.1158 13.4944 10.4955ZM3.69384 1.76184C3.98943 2.90237 4.62037 3.928 5.50507 4.70613L5.02539 5.2768C4.0224 4.4058 3.30482 3.25306 2.96603 1.9686L3.69384 1.76184ZM14.156 13.1172C12.8715 12.7784 11.7188 12.0609 10.8478 11.0579L11.4185 10.5782C12.1886 11.4603 13.2056 12.0912 14.338 12.3894L14.156 13.1172Z" fill="white"/>
</svg>
