<svg width="246" height="246" viewBox="0 0 246 246" fill="none" xmlns="http://www.w3.org/2000/svg">
<path d="M0 0H8.48276V8.48276H0V0ZM8.48276 0H16.9655V8.48276H8.48276V0ZM16.9655 0H25.4483V8.48276H16.9655V0ZM25.4483 0H33.931V8.48276H25.4483V0ZM33.931 0H42.4138V8.48276H33.931V0ZM42.4138 0H50.8966V8.48276H42.4138V0ZM50.8966 0H59.3793V8.48276H50.8966V0ZM76.3448 0H84.8276V8.48276H76.3448V0ZM127.241 0H135.724V8.48276H127.241V0ZM152.69 0H161.172V8.48276H152.69V0ZM186.621 0H195.103V8.48276H186.621V0ZM195.103 0H203.586V8.48276H195.103V0ZM203.586 0H212.069V8.48276H203.586V0ZM212.069 0H220.552V8.48276H212.069V0ZM220.552 0H229.034V8.48276H220.552V0ZM229.034 0H237.517V8.48276H229.034V0ZM237.517 0H246V8.48276H237.517V0ZM0 8.48276H8.48276V16.9655H0V8.48276ZM50.8966 8.48276H59.3793V16.9655H50.8966V8.48276ZM76.3448 8.48276H84.8276V16.9655H76.3448V8.48276ZM93.3103 8.48276H101.793V16.9655H93.3103V8.48276ZM101.793 8.48276H110.276V16.9655H101.793V8.48276ZM110.276 8.48276H118.759V16.9655H110.276V8.48276ZM127.241 8.48276H135.724V16.9655H127.241V8.48276ZM144.207 8.48276H152.69V16.9655H144.207V8.48276ZM186.621 8.48276H195.103V16.9655H186.621V8.48276ZM237.517 8.48276H246V16.9655H237.517V8.48276ZM0 16.9655H8.48276V25.4483H0V16.9655ZM16.9655 16.9655H25.4483V25.4483H16.9655V16.9655ZM25.4483 16.9655H33.931V25.4483H25.4483V16.9655ZM33.931 16.9655H42.4138V25.4483H33.931V16.9655ZM50.8966 16.9655H59.3793V25.4483H50.8966V16.9655ZM76.3448 16.9655H84.8276V25.4483H76.3448V16.9655ZM84.8276 16.9655H93.3103V25.4483H84.8276V16.9655ZM93.3103 16.9655H101.793V25.4483H93.3103V16.9655ZM118.759 16.9655H127.241V25.4483H118.759V16.9655ZM127.241 16.9655H135.724V25.4483H127.241V16.9655ZM135.724 16.9655H144.207V25.4483H135.724V16.9655ZM144.207 16.9655H152.69V25.4483H144.207V16.9655ZM186.621 16.9655H195.103V25.4483H186.621V16.9655ZM203.586 16.9655H212.069V25.4483H203.586V16.9655ZM212.069 16.9655H220.552V25.4483H212.069V16.9655ZM220.552 16.9655H229.034V25.4483H220.552V16.9655ZM237.517 16.9655H246V25.4483H237.517V16.9655ZM0 25.4483H8.48276V33.931H0V25.4483ZM16.9655 25.4483H25.4483V33.931H16.9655V25.4483ZM25.4483 25.4483H33.931V33.931H25.4483V25.4483ZM33.931 25.4483H42.4138V33.931H33.931V25.4483ZM50.8966 25.4483H59.3793V33.931H50.8966V25.4483ZM101.793 25.4483H110.276V33.931H101.793V25.4483ZM127.241 25.4483H135.724V33.931H127.241V25.4483ZM135.724 25.4483H144.207V33.931H135.724V25.4483ZM161.172 25.4483H169.655V33.931H161.172V25.4483ZM169.655 25.4483H178.138V33.931H169.655V25.4483ZM186.621 25.4483H195.103V33.931H186.621V25.4483ZM203.586 25.4483H212.069V33.931H203.586V25.4483ZM212.069 25.4483H220.552V33.931H212.069V25.4483ZM220.552 25.4483H229.034V33.931H220.552V25.4483ZM237.517 25.4483H246V33.931H237.517V25.4483ZM0 33.931H8.48276V42.4138H0V33.931ZM16.9655 33.931H25.4483V42.4138H16.9655V33.931ZM25.4483 33.931H33.931V42.4138H25.4483V33.931ZM33.931 33.931H42.4138V42.4138H33.931V33.931ZM50.8966 33.931H59.3793V42.4138H50.8966V33.931ZM84.8276 33.931H93.3103V42.4138H84.8276V33.931ZM101.793 33.931H110.276V42.4138H101.793V33.931ZM127.241 33.931H135.724V42.4138H127.241V33.931ZM135.724 33.931H144.207V42.4138H135.724V33.931ZM144.207 33.931H152.69V42.4138H144.207V33.931ZM161.172 33.931H169.655V42.4138H161.172V33.931ZM186.621 33.931H195.103V42.4138H186.621V33.931ZM203.586 33.931H212.069V42.4138H203.586V33.931ZM212.069 33.931H220.552V42.4138H212.069V33.931ZM220.552 33.931H229.034V42.4138H220.552V33.931ZM237.517 33.931H246V42.4138H237.517V33.931ZM0 42.4138H8.48276V50.8966H0V42.4138ZM50.8966 42.4138H59.3793V50.8966H50.8966V42.4138ZM67.8621 42.4138H76.3448V50.8966H67.8621V42.4138ZM76.3448 42.4138H84.8276V50.8966H76.3448V42.4138ZM118.759 42.4138H127.241V50.8966H118.759V42.4138ZM127.241 42.4138H135.724V50.8966H127.241V42.4138ZM135.724 42.4138H144.207V50.8966H135.724V42.4138ZM144.207 42.4138H152.69V50.8966H144.207V42.4138ZM161.172 42.4138H169.655V50.8966H161.172V42.4138ZM186.621 42.4138H195.103V50.8966H186.621V42.4138ZM237.517 42.4138H246V50.8966H237.517V42.4138ZM0 50.8966H8.48276V59.3793H0V50.8966ZM8.48276 50.8966H16.9655V59.3793H8.48276V50.8966ZM16.9655 50.8966H25.4483V59.3793H16.9655V50.8966ZM25.4483 50.8966H33.931V59.3793H25.4483V50.8966ZM33.931 50.8966H42.4138V59.3793H33.931V50.8966ZM42.4138 50.8966H50.8966V59.3793H42.4138V50.8966ZM50.8966 50.8966H59.3793V59.3793H50.8966V50.8966ZM67.8621 50.8966H76.3448V59.3793H67.8621V50.8966ZM84.8276 50.8966H93.3103V59.3793H84.8276V50.8966ZM101.793 50.8966H110.276V59.3793H101.793V50.8966ZM118.759 50.8966H127.241V59.3793H118.759V50.8966ZM135.724 50.8966H144.207V59.3793H135.724V50.8966ZM152.69 50.8966H161.172V59.3793H152.69V50.8966ZM169.655 50.8966H178.138V59.3793H169.655V50.8966ZM186.621 50.8966H195.103V59.3793H186.621V50.8966ZM195.103 50.8966H203.586V59.3793H195.103V50.8966ZM203.586 50.8966H212.069V59.3793H203.586V50.8966ZM212.069 50.8966H220.552V59.3793H212.069V50.8966ZM220.552 50.8966H229.034V59.3793H220.552V50.8966ZM229.034 50.8966H237.517V59.3793H229.034V50.8966ZM237.517 50.8966H246V59.3793H237.517V50.8966ZM76.3448 59.3793H84.8276V67.8621H76.3448V59.3793ZM93.3103 59.3793H101.793V67.8621H93.3103V59.3793ZM101.793 59.3793H110.276V67.8621H101.793V59.3793ZM118.759 59.3793H127.241V67.8621H118.759V59.3793ZM127.241 59.3793H135.724V67.8621H127.241V59.3793ZM144.207 59.3793H152.69V67.8621H144.207V59.3793ZM152.69 59.3793H161.172V67.8621H152.69V59.3793ZM161.172 59.3793H169.655V67.8621H161.172V59.3793ZM169.655 59.3793H178.138V67.8621H169.655V59.3793ZM0 67.8621H8.48276V76.3448H0V67.8621ZM25.4483 67.8621H33.931V76.3448H25.4483V67.8621ZM42.4138 67.8621H50.8966V76.3448H42.4138V67.8621ZM50.8966 67.8621H59.3793V76.3448H50.8966V67.8621ZM67.8621 67.8621H76.3448V76.3448H67.8621V67.8621ZM76.3448 67.8621H84.8276V76.3448H76.3448V67.8621ZM101.793 67.8621H110.276V76.3448H101.793V67.8621ZM110.276 67.8621H118.759V76.3448H110.276V67.8621ZM135.724 67.8621H144.207V76.3448H135.724V67.8621ZM144.207 67.8621H152.69V76.3448H144.207V67.8621ZM169.655 67.8621H178.138V76.3448H169.655V67.8621ZM178.138 67.8621H186.621V76.3448H178.138V67.8621ZM195.103 67.8621H203.586V76.3448H195.103V67.8621ZM0 76.3448H8.48276V84.8276H0V76.3448ZM16.9655 76.3448H25.4483V84.8276H16.9655V76.3448ZM25.4483 76.3448H33.931V84.8276H25.4483V76.3448ZM42.4138 76.3448H50.8966V84.8276H42.4138V76.3448ZM59.3793 76.3448H67.8621V84.8276H59.3793V76.3448ZM67.8621 76.3448H76.3448V84.8276H67.8621V76.3448ZM76.3448 76.3448H84.8276V84.8276H76.3448V76.3448ZM84.8276 76.3448H93.3103V84.8276H84.8276V76.3448ZM93.3103 76.3448H101.793V84.8276H93.3103V76.3448ZM101.793 76.3448H110.276V84.8276H101.793V76.3448ZM118.759 76.3448H127.241V84.8276H118.759V76.3448ZM135.724 76.3448H144.207V84.8276H135.724V76.3448ZM144.207 76.3448H152.69V84.8276H144.207V76.3448ZM152.69 76.3448H161.172V84.8276H152.69V76.3448ZM161.172 76.3448H169.655V84.8276H161.172V76.3448ZM169.655 76.3448H178.138V84.8276H169.655V76.3448ZM178.138 76.3448H186.621V84.8276H178.138V76.3448ZM186.621 76.3448H195.103V84.8276H186.621V76.3448ZM195.103 76.3448H203.586V84.8276H195.103V76.3448ZM212.069 76.3448H220.552V84.8276H212.069V76.3448ZM220.552 76.3448H229.034V84.8276H220.552V76.3448ZM229.034 76.3448H237.517V84.8276H229.034V76.3448ZM0 84.8276H8.48276V93.3103H0V84.8276ZM8.48276 84.8276H16.9655V93.3103H8.48276V84.8276ZM16.9655 84.8276H25.4483V93.3103H16.9655V84.8276ZM25.4483 84.8276H33.931V93.3103H25.4483V84.8276ZM50.8966 84.8276H59.3793V93.3103H50.8966V84.8276ZM59.3793 84.8276H67.8621V93.3103H59.3793V84.8276ZM67.8621 84.8276H76.3448V93.3103H67.8621V84.8276ZM101.793 84.8276H110.276V93.3103H101.793V84.8276ZM118.759 84.8276H127.241V93.3103H118.759V84.8276ZM152.69 84.8276H161.172V93.3103H152.69V84.8276ZM161.172 84.8276H169.655V93.3103H161.172V84.8276ZM169.655 84.8276H178.138V93.3103H169.655V84.8276ZM178.138 84.8276H186.621V93.3103H178.138V84.8276ZM186.621 84.8276H195.103V93.3103H186.621V84.8276ZM220.552 84.8276H229.034V93.3103H220.552V84.8276ZM229.034 84.8276H237.517V93.3103H229.034V84.8276ZM8.48276 93.3103H16.9655V101.793H8.48276V93.3103ZM16.9655 93.3103H25.4483V101.793H16.9655V93.3103ZM33.931 93.3103H42.4138V101.793H33.931V93.3103ZM42.4138 93.3103H50.8966V101.793H42.4138V93.3103ZM59.3793 93.3103H67.8621V101.793H59.3793V93.3103ZM67.8621 93.3103H76.3448V101.793H67.8621V93.3103ZM84.8276 93.3103H93.3103V101.793H84.8276V93.3103ZM93.3103 93.3103H101.793V101.793H93.3103V93.3103ZM110.276 93.3103H118.759V101.793H110.276V93.3103ZM169.655 93.3103H178.138V101.793H169.655V93.3103ZM195.103 93.3103H203.586V101.793H195.103V93.3103ZM212.069 93.3103H220.552V101.793H212.069V93.3103ZM220.552 93.3103H229.034V101.793H220.552V93.3103ZM229.034 93.3103H237.517V101.793H229.034V93.3103ZM237.517 93.3103H246V101.793H237.517V93.3103ZM0 101.793H8.48276V110.276H0V101.793ZM8.48276 101.793H16.9655V110.276H8.48276V101.793ZM50.8966 101.793H59.3793V110.276H50.8966V101.793ZM67.8621 101.793H76.3448V110.276H67.8621V101.793ZM76.3448 101.793H84.8276V110.276H76.3448V101.793ZM93.3103 101.793H101.793V110.276H93.3103V101.793ZM101.793 101.793H110.276V110.276H101.793V101.793ZM118.759 101.793H127.241V110.276H118.759V101.793ZM144.207 101.793H152.69V110.276H144.207V101.793ZM152.69 101.793H161.172V110.276H152.69V101.793ZM161.172 101.793H169.655V110.276H161.172V101.793ZM186.621 101.793H195.103V110.276H186.621V101.793ZM203.586 101.793H212.069V110.276H203.586V101.793ZM212.069 101.793H220.552V110.276H212.069V101.793ZM229.034 101.793H237.517V110.276H229.034V101.793ZM237.517 101.793H246V110.276H237.517V101.793ZM8.48276 110.276H16.9655V118.759H8.48276V110.276ZM16.9655 110.276H25.4483V118.759H16.9655V110.276ZM33.931 110.276H42.4138V118.759H33.931V110.276ZM76.3448 110.276H84.8276V118.759H76.3448V110.276ZM84.8276 110.276H93.3103V118.759H84.8276V110.276ZM110.276 110.276H118.759V118.759H110.276V110.276ZM152.69 110.276H161.172V118.759H152.69V110.276ZM161.172 110.276H169.655V118.759H161.172V110.276ZM220.552 110.276H229.034V118.759H220.552V110.276ZM229.034 110.276H237.517V118.759H229.034V110.276ZM237.517 110.276H246V118.759H237.517V110.276ZM8.48276 118.759H16.9655V127.241H8.48276V118.759ZM25.4483 118.759H33.931V127.241H25.4483V118.759ZM50.8966 118.759H59.3793V127.241H50.8966V118.759ZM59.3793 118.759H67.8621V127.241H59.3793V118.759ZM67.8621 118.759H76.3448V127.241H67.8621V118.759ZM76.3448 118.759H84.8276V127.241H76.3448V118.759ZM84.8276 118.759H93.3103V127.241H84.8276V118.759ZM93.3103 118.759H101.793V127.241H93.3103V118.759ZM110.276 118.759H118.759V127.241H110.276V118.759ZM118.759 118.759H127.241V127.241H118.759V118.759ZM152.69 118.759H161.172V127.241H152.69V118.759ZM186.621 118.759H195.103V127.241H186.621V118.759ZM203.586 118.759H212.069V127.241H203.586V118.759ZM220.552 118.759H229.034V127.241H220.552V118.759ZM229.034 118.759H237.517V127.241H229.034V118.759ZM237.517 118.759H246V127.241H237.517V118.759ZM0 127.241H8.48276V135.724H0V127.241ZM8.48276 127.241H16.9655V135.724H8.48276V127.241ZM16.9655 127.241H25.4483V135.724H16.9655V127.241ZM25.4483 127.241H33.931V135.724H25.4483V127.241ZM33.931 127.241H42.4138V135.724H33.931V127.241ZM59.3793 127.241H67.8621V135.724H59.3793V127.241ZM101.793 127.241H110.276V135.724H101.793V127.241ZM135.724 127.241H144.207V135.724H135.724V127.241ZM144.207 127.241H152.69V135.724H144.207V127.241ZM161.172 127.241H169.655V135.724H161.172V127.241ZM169.655 127.241H178.138V135.724H169.655V127.241ZM178.138 127.241H186.621V135.724H178.138V127.241ZM186.621 127.241H195.103V135.724H186.621V127.241ZM8.48276 135.724H16.9655V144.207H8.48276V135.724ZM16.9655 135.724H25.4483V144.207H16.9655V135.724ZM25.4483 135.724H33.931V144.207H25.4483V135.724ZM33.931 135.724H42.4138V144.207H33.931V135.724ZM50.8966 135.724H59.3793V144.207H50.8966V135.724ZM76.3448 135.724H84.8276V144.207H76.3448V135.724ZM84.8276 135.724H93.3103V144.207H84.8276V135.724ZM101.793 135.724H110.276V144.207H101.793V135.724ZM110.276 135.724H118.759V144.207H110.276V135.724ZM144.207 135.724H152.69V144.207H144.207V135.724ZM161.172 135.724H169.655V144.207H161.172V135.724ZM203.586 135.724H212.069V144.207H203.586V135.724ZM220.552 135.724H229.034V144.207H220.552V135.724ZM237.517 135.724H246V144.207H237.517V135.724ZM33.931 144.207H42.4138V152.69H33.931V144.207ZM59.3793 144.207H67.8621V152.69H59.3793V144.207ZM84.8276 144.207H93.3103V152.69H84.8276V144.207ZM93.3103 144.207H101.793V152.69H93.3103V144.207ZM110.276 144.207H118.759V152.69H110.276V144.207ZM118.759 144.207H127.241V152.69H118.759V144.207ZM135.724 144.207H144.207V152.69H135.724V144.207ZM152.69 144.207H161.172V152.69H152.69V144.207ZM161.172 144.207H169.655V152.69H161.172V144.207ZM186.621 144.207H195.103V152.69H186.621V144.207ZM195.103 144.207H203.586V152.69H195.103V144.207ZM212.069 144.207H220.552V152.69H212.069V144.207ZM220.552 144.207H229.034V152.69H220.552V144.207ZM229.034 144.207H237.517V152.69H229.034V144.207ZM0 152.69H8.48276V161.172H0V152.69ZM33.931 152.69H42.4138V161.172H33.931V152.69ZM42.4138 152.69H50.8966V161.172H42.4138V152.69ZM50.8966 152.69H59.3793V161.172H50.8966V152.69ZM59.3793 152.69H67.8621V161.172H59.3793V152.69ZM67.8621 152.69H76.3448V161.172H67.8621V152.69ZM84.8276 152.69H93.3103V161.172H84.8276V152.69ZM118.759 152.69H127.241V161.172H118.759V152.69ZM135.724 152.69H144.207V161.172H135.724V152.69ZM144.207 152.69H152.69V161.172H144.207V152.69ZM152.69 152.69H161.172V161.172H152.69V152.69ZM186.621 152.69H195.103V161.172H186.621V152.69ZM195.103 152.69H203.586V161.172H195.103V152.69ZM203.586 152.69H212.069V161.172H203.586V152.69ZM212.069 152.69H220.552V161.172H212.069V152.69ZM229.034 152.69H237.517V161.172H229.034V152.69ZM237.517 152.69H246V161.172H237.517V152.69ZM25.4483 161.172H33.931V169.655H25.4483V161.172ZM33.931 161.172H42.4138V169.655H33.931V161.172ZM42.4138 161.172H50.8966V169.655H42.4138V161.172ZM67.8621 161.172H76.3448V169.655H67.8621V161.172ZM84.8276 161.172H93.3103V169.655H84.8276V161.172ZM93.3103 161.172H101.793V169.655H93.3103V161.172ZM118.759 161.172H127.241V169.655H118.759V161.172ZM144.207 161.172H152.69V169.655H144.207V161.172ZM161.172 161.172H169.655V169.655H161.172V161.172ZM178.138 161.172H186.621V169.655H178.138V161.172ZM186.621 161.172H195.103V169.655H186.621V161.172ZM195.103 161.172H203.586V169.655H195.103V161.172ZM203.586 161.172H212.069V169.655H203.586V161.172ZM0 169.655H8.48276V178.138H0V169.655ZM16.9655 169.655H25.4483V178.138H16.9655V169.655ZM25.4483 169.655H33.931V178.138H25.4483V169.655ZM42.4138 169.655H50.8966V178.138H42.4138V169.655ZM50.8966 169.655H59.3793V178.138H50.8966V169.655ZM59.3793 169.655H67.8621V178.138H59.3793V169.655ZM67.8621 169.655H76.3448V178.138H67.8621V169.655ZM76.3448 169.655H84.8276V178.138H76.3448V169.655ZM93.3103 169.655H101.793V178.138H93.3103V169.655ZM127.241 169.655H135.724V178.138H127.241V169.655ZM135.724 169.655H144.207V178.138H135.724V169.655ZM161.172 169.655H169.655V178.138H161.172V169.655ZM169.655 169.655H178.138V178.138H169.655V169.655ZM178.138 169.655H186.621V178.138H178.138V169.655ZM186.621 169.655H195.103V178.138H186.621V169.655ZM195.103 169.655H203.586V178.138H195.103V169.655ZM203.586 169.655H212.069V178.138H203.586V169.655ZM212.069 169.655H220.552V178.138H212.069V169.655ZM220.552 169.655H229.034V178.138H220.552V169.655ZM229.034 169.655H237.517V178.138H229.034V169.655ZM237.517 169.655H246V178.138H237.517V169.655ZM67.8621 178.138H76.3448V186.621H67.8621V178.138ZM93.3103 178.138H101.793V186.621H93.3103V178.138ZM101.793 178.138H110.276V186.621H101.793V178.138ZM118.759 178.138H127.241V186.621H118.759V178.138ZM135.724 178.138H144.207V186.621H135.724V178.138ZM169.655 178.138H178.138V186.621H169.655V178.138ZM203.586 178.138H212.069V186.621H203.586V178.138ZM212.069 178.138H220.552V186.621H212.069V178.138ZM220.552 178.138H229.034V186.621H220.552V178.138ZM0 186.621H8.48276V195.103H0V186.621ZM8.48276 186.621H16.9655V195.103H8.48276V186.621ZM16.9655 186.621H25.4483V195.103H16.9655V186.621ZM25.4483 186.621H33.931V195.103H25.4483V186.621ZM33.931 186.621H42.4138V195.103H33.931V186.621ZM42.4138 186.621H50.8966V195.103H42.4138V186.621ZM50.8966 186.621H59.3793V195.103H50.8966V186.621ZM76.3448 186.621H84.8276V195.103H76.3448V186.621ZM93.3103 186.621H101.793V195.103H93.3103V186.621ZM135.724 186.621H144.207V195.103H135.724V186.621ZM144.207 186.621H152.69V195.103H144.207V186.621ZM169.655 186.621H178.138V195.103H169.655V186.621ZM186.621 186.621H195.103V195.103H186.621V186.621ZM203.586 186.621H212.069V195.103H203.586V186.621ZM212.069 186.621H220.552V195.103H212.069V186.621ZM229.034 186.621H237.517V195.103H229.034V186.621ZM0 195.103H8.48276V203.586H0V195.103ZM50.8966 195.103H59.3793V203.586H50.8966V195.103ZM67.8621 195.103H76.3448V203.586H67.8621V195.103ZM84.8276 195.103H93.3103V203.586H84.8276V195.103ZM101.793 195.103H110.276V203.586H101.793V195.103ZM118.759 195.103H127.241V203.586H118.759V195.103ZM135.724 195.103H144.207V203.586H135.724V195.103ZM152.69 195.103H161.172V203.586H152.69V195.103ZM161.172 195.103H169.655V203.586H161.172V195.103ZM169.655 195.103H178.138V203.586H169.655V195.103ZM203.586 195.103H212.069V203.586H203.586V195.103ZM220.552 195.103H229.034V203.586H220.552V195.103ZM237.517 195.103H246V203.586H237.517V195.103ZM0 203.586H8.48276V212.069H0V203.586ZM16.9655 203.586H25.4483V212.069H16.9655V203.586ZM25.4483 203.586H33.931V212.069H25.4483V203.586ZM33.931 203.586H42.4138V212.069H33.931V203.586ZM50.8966 203.586H59.3793V212.069H50.8966V203.586ZM84.8276 203.586H93.3103V212.069H84.8276V203.586ZM93.3103 203.586H101.793V212.069H93.3103V203.586ZM101.793 203.586H110.276V212.069H101.793V203.586ZM127.241 203.586H135.724V212.069H127.241V203.586ZM135.724 203.586H144.207V212.069H135.724V203.586ZM144.207 203.586H152.69V212.069H144.207V203.586ZM169.655 203.586H178.138V212.069H169.655V203.586ZM178.138 203.586H186.621V212.069H178.138V203.586ZM186.621 203.586H195.103V212.069H186.621V203.586ZM195.103 203.586H203.586V212.069H195.103V203.586ZM203.586 203.586H212.069V212.069H203.586V203.586ZM212.069 203.586H220.552V212.069H212.069V203.586ZM220.552 203.586H229.034V212.069H220.552V203.586ZM229.034 203.586H237.517V212.069H229.034V203.586ZM237.517 203.586H246V212.069H237.517V203.586ZM0 212.069H8.48276V220.552H0V212.069ZM16.9655 212.069H25.4483V220.552H16.9655V212.069ZM25.4483 212.069H33.931V220.552H25.4483V212.069ZM33.931 212.069H42.4138V220.552H33.931V212.069ZM50.8966 212.069H59.3793V220.552H50.8966V212.069ZM67.8621 212.069H76.3448V220.552H67.8621V212.069ZM76.3448 212.069H84.8276V220.552H76.3448V212.069ZM84.8276 212.069H93.3103V220.552H84.8276V212.069ZM93.3103 212.069H101.793V220.552H93.3103V212.069ZM101.793 212.069H110.276V220.552H101.793V212.069ZM110.276 212.069H118.759V220.552H110.276V212.069ZM144.207 212.069H152.69V220.552H144.207V212.069ZM152.69 212.069H161.172V220.552H152.69V212.069ZM161.172 212.069H169.655V220.552H161.172V212.069ZM178.138 212.069H186.621V220.552H178.138V212.069ZM186.621 212.069H195.103V220.552H186.621V212.069ZM195.103 212.069H203.586V220.552H195.103V212.069ZM229.034 212.069H237.517V220.552H229.034V212.069ZM0 220.552H8.48276V229.034H0V220.552ZM16.9655 220.552H25.4483V229.034H16.9655V220.552ZM25.4483 220.552H33.931V229.034H25.4483V220.552ZM33.931 220.552H42.4138V229.034H33.931V220.552ZM50.8966 220.552H59.3793V229.034H50.8966V220.552ZM84.8276 220.552H93.3103V229.034H84.8276V220.552ZM110.276 220.552H118.759V229.034H110.276V220.552ZM118.759 220.552H127.241V229.034H118.759V220.552ZM152.69 220.552H161.172V229.034H152.69V220.552ZM178.138 220.552H186.621V229.034H178.138V220.552ZM203.586 220.552H212.069V229.034H203.586V220.552ZM212.069 220.552H220.552V229.034H212.069V220.552ZM220.552 220.552H229.034V229.034H220.552V220.552ZM237.517 220.552H246V229.034H237.517V220.552ZM0 229.034H8.48276V237.517H0V229.034ZM50.8966 229.034H59.3793V237.517H50.8966V229.034ZM76.3448 229.034H84.8276V237.517H76.3448V229.034ZM84.8276 229.034H93.3103V237.517H84.8276V229.034ZM101.793 229.034H110.276V237.517H101.793V229.034ZM118.759 229.034H127.241V237.517H118.759V229.034ZM144.207 229.034H152.69V237.517H144.207V229.034ZM152.69 229.034H161.172V237.517H152.69V229.034ZM169.655 229.034H178.138V237.517H169.655V229.034ZM178.138 229.034H186.621V237.517H178.138V229.034ZM195.103 229.034H203.586V237.517H195.103V229.034ZM229.034 229.034H237.517V237.517H229.034V229.034ZM0 237.517H8.48276V246H0V237.517ZM8.48276 237.517H16.9655V246H8.48276V237.517ZM16.9655 237.517H25.4483V246H16.9655V237.517ZM25.4483 237.517H33.931V246H25.4483V237.517ZM33.931 237.517H42.4138V246H33.931V237.517ZM42.4138 237.517H50.8966V246H42.4138V237.517ZM50.8966 237.517H59.3793V246H50.8966V237.517ZM67.8621 237.517H76.3448V246H67.8621V237.517ZM84.8276 237.517H93.3103V246H84.8276V237.517ZM93.3103 237.517H101.793V246H93.3103V237.517ZM101.793 237.517H110.276V246H101.793V237.517ZM118.759 237.517H127.241V246H118.759V237.517ZM144.207 237.517H152.69V246H144.207V237.517ZM161.172 237.517H169.655V246H161.172V237.517ZM169.655 237.517H178.138V246H169.655V237.517ZM186.621 237.517H195.103V246H186.621V237.517ZM203.586 237.517H212.069V246H203.586V237.517ZM220.552 237.517H229.034V246H220.552V237.517ZM229.034 237.517H237.517V246H229.034V237.517Z" fill="white"/>
</svg>
