<svg width="154" height="21" viewBox="0 0 154 21" fill="none" xmlns="http://www.w3.org/2000/svg">
<path d="M83.7011 14.3325C86.71 14.3325 88.1723 12.8416 88.1723 10.1759C88.1723 7.4399 86.798 6.08743 83.7176 6.08743H81.7344V14.3325H83.7011ZM83.7526 4.07214C88.2642 4.07214 90.4508 6.19479 90.4508 9.96321C90.4508 14.4543 87.6677 16.3478 83.7011 16.3478H79.5707V4.06384L83.7526 4.07214Z" fill="white"/>
<path d="M100.522 11.0266H94.9214V14.3242H101.359V16.3416H92.7473V4.06384H101.168V6.08124H94.9214V9.00924H100.522V11.0266Z" fill="white"/>
<path d="M107.62 16.3416L102.61 4.06384H104.942L108.734 13.6407L112.509 4.06384H114.716L109.778 16.3416H107.62Z" fill="white"/>
<path d="M118.598 4.06384H116.425V16.3416H118.598V4.06384Z" fill="white"/>
<path d="M131.837 14.9918C131.221 15.7269 129.628 16.5343 127.53 16.5343C123.561 16.5177 120.92 14.1493 120.92 10.1868C120.92 6.48662 123.529 3.87659 127.567 3.87659C129.48 3.87659 130.889 4.47337 131.603 4.98132V8.02907C131.147 7.37429 130.542 6.83876 129.839 6.46703C129.136 6.09526 128.355 5.89808 127.561 5.89193C124.895 5.89193 123.254 7.62642 123.254 10.2054C123.254 12.5904 124.689 14.4673 127.499 14.5189C129.622 14.5189 131.117 13.5402 131.831 12.2951L131.837 14.9918Z" fill="white"/>
<path d="M141.858 11.0266H136.254V14.3242H142.692V16.3416H134.08V4.06384H142.501V6.08124H136.254V9.00924H141.858V11.0266Z" fill="white"/>
<path d="M149.424 5.89124C147.718 5.90778 147.007 6.43432 147.007 7.27678C147.007 9.82067 154 8.03043 154 12.8189C154 14.8838 152.519 16.5356 149.25 16.5356C147.127 16.5356 145.44 15.7303 144.796 14.9932V12.2903C145.544 13.5292 147.127 14.5141 149.267 14.5141C150.971 14.5141 151.775 13.9195 151.775 12.918C151.775 10.3224 144.802 12.2345 144.802 7.32424C144.802 5.14994 146.522 3.86975 149.431 3.86975C151.309 3.88624 152.712 4.4479 153.411 4.97239V8.0098C152.968 7.35712 152.373 6.82308 151.679 6.45395C150.984 6.08477 150.21 5.89164 149.424 5.89124Z" fill="white"/>
<path d="M10.1397 20.405C8.51853 20.406 6.92082 20.0155 5.48068 19.2661C4.04055 18.5167 2.80001 17.4303 1.86321 16.0982C0.92642 14.7662 0.320722 13.2272 0.0969792 11.6107C-0.126764 9.99406 0.0379781 8.34704 0.577374 6.80783C1.11676 5.26862 2.01507 3.88218 3.19686 2.7649C4.37864 1.64763 5.80944 0.832135 7.36903 0.386922C8.92867 -0.0583402 10.5716 -0.120287 12.16 0.206179C13.7484 0.532595 15.2358 1.23803 16.4973 2.26309L14.5284 3.73536C13.0892 2.73558 11.3599 2.2475 9.61413 2.34836C7.86835 2.44923 6.20584 3.13323 4.88958 4.29222C3.57332 5.45126 2.67843 7.01905 2.34649 8.7476C2.01456 10.4761 2.26453 12.2668 3.05686 13.8363C3.84919 15.4057 5.13862 16.6644 6.72125 17.4132C8.30382 18.1619 10.0892 18.358 11.7949 17.9705C13.5006 17.5829 15.0293 16.6338 16.1391 15.2733C17.249 13.9127 17.8765 12.2185 17.9226 10.4586C17.9226 10.3739 17.9226 10.2872 17.9226 10.2025V9.99601L20.0965 8.37512C20.3608 9.84444 20.3017 11.3543 19.9235 12.7982C19.5453 14.242 18.8571 15.5848 17.9076 16.7318C16.958 17.8789 15.7701 18.8023 14.4276 19.4369C13.0851 20.0716 11.6207 20.402 10.1376 20.405H10.1397ZM10.1397 9.91343L6.29022 7.481V10.409L10.1397 12.8414L19.3685 5.99429C19.0431 5.27317 18.6364 4.59206 18.1564 3.96456L10.1397 9.91343ZM65.9022 10.822H68.2296C69.9137 10.822 70.8404 9.98157 70.8404 8.46804C70.8404 6.95446 69.9137 6.10375 68.2296 6.10375H65.9022V10.822ZM70.8469 16.3455L68.5089 12.8641H65.9022V16.3455H63.273V4.06367H68.2916C71.4908 4.06367 73.4801 5.74651 73.4801 8.45565C73.4801 10.2913 72.5694 11.6583 70.9902 12.3521L73.6564 16.3496L70.8469 16.3455ZM58.076 6.10375L60.8181 4.06777H51.6261V16.3455H60.8181V14.3096H54.2553V11.1482H59.8684V9.10813H54.2473V6.0996L58.076 6.10375ZM46.5114 12.7258C46.5114 11.6747 45.7526 11.1524 44.2555 11.1524H40.9741V14.3054H44.2555C45.7772 14.3054 46.5114 13.7768 46.5114 12.7258ZM40.9741 9.10813H43.7735C45.1681 9.10813 45.9085 8.59603 45.9085 7.60903C45.9085 6.92763 45.5352 6.10994 43.7735 6.10994H40.9823L40.9741 9.10813ZM49.1652 13.0169C49.1652 15.1603 47.4938 16.3414 44.4483 16.3414H38.3491V4.06367H44.1181C46.9093 4.06367 48.5746 5.24684 48.5746 7.21877C48.5933 7.76755 48.4579 8.31047 48.1841 8.78526C47.9101 9.2601 47.5088 9.64751 47.0262 9.90309L46.9093 9.96918L47.0344 10.0084C48.39 10.4627 49.1693 11.5694 49.1693 13.0169H49.1652ZM35.8983 12.7691C35.8983 15.0673 33.9357 16.5561 30.8983 16.5561C29.0649 16.5561 27.1924 16.0089 26.1137 15.1623L27.0038 13.1098C28.1508 13.9187 29.5144 14.3586 30.9147 14.3715C32.9656 14.3715 33.2732 13.5022 33.2732 12.986C33.2732 11.9783 32.0427 11.6809 30.6358 11.334C28.6219 10.8447 26.329 10.3016 26.329 7.6462C26.329 5.80845 27.6354 3.84476 31.2982 3.84476C32.7729 3.8578 34.2167 4.27084 35.4779 5.04032L33.5337 6.48576C32.8354 6.1517 32.0666 5.99434 31.2942 6.02736C30.5948 6.02736 28.9705 6.16984 28.9705 7.49958C28.9705 8.49072 30.2011 8.77982 31.6038 9.11637C33.6198 9.59955 35.9106 10.1488 35.9106 12.7588L35.8983 12.7691Z" fill="white"/>
</svg>
