<svg width="95" height="20" viewBox="0 0 95 20" fill="none" xmlns="http://www.w3.org/2000/svg">
<path d="M10.5518 20C16.0388 20 20.4869 15.5228 20.4869 10C20.4869 4.47715 16.0388 0 10.5518 0C5.06484 0 0.61676 4.47715 0.61676 10C0.61676 15.5228 5.06484 20 10.5518 20Z" fill="white"/>
<path fill-rule="evenodd" clip-rule="evenodd" d="M13.9201 5.00923C14.0613 5.00923 14.1743 5.12285 14.1743 5.26489C14.1743 5.40692 14.0613 5.52054 13.9201 5.52054C13.7789 5.52054 13.6659 5.40692 13.6659 5.26489C13.6659 5.12285 13.7789 5.00923 13.9201 5.00923ZM13.7083 5.86142H15.205L14.8944 6.37274L15.205 6.92666H13.7083V5.86142ZM12.847 7.35276H15.4733C15.5721 7.79305 15.6145 8.23335 15.6145 8.70206C15.6145 9.15656 15.558 9.61106 15.4733 10.0514H12.847C12.9458 9.61106 12.9882 9.17076 12.9882 8.70206C12.9882 8.23335 12.9458 7.77885 12.847 7.35276ZM14.1178 10.4633V11.5427H13.7224V10.4633H14.1178ZM12.9176 10.4775L12.1975 11.5427H11.7597L12.4799 10.4775H12.9176ZM11.2232 11.5427H10.7713L11.4915 10.4775H11.9433L11.2232 11.5427ZM10.1642 3.33325C10.3054 3.33325 10.4183 3.44688 10.4183 3.58891C10.4183 3.73094 10.3054 3.84457 10.1642 3.84457C10.023 3.84457 9.91001 3.73094 9.91001 3.58891C9.91001 3.44688 10.023 3.33325 10.1642 3.33325ZM10.0089 4.19965H11.5056L11.1949 4.71096L11.5056 5.26489H10.0089V4.19965ZM8.42741 5.67678H11.8868C12.0845 6.30172 12.1833 6.96927 12.1833 7.65102C12.1833 8.34698 12.0845 9.00033 11.8868 9.62527H8.42741C8.62509 9.00033 8.72393 8.33278 8.72393 7.65102C8.72393 6.96927 8.62509 6.30172 8.42741 5.67678ZM10.376 10.0514V11.5427H9.96649V10.0514H10.376ZM9.55701 10.0514L8.58273 11.5285H8.13089L9.10517 10.0372H9.55701V10.0514ZM8.58273 10.0514L7.63668 11.5285H7.18484L8.13089 10.0372H8.58273V10.0514ZM6.01288 5.02343C6.15408 5.02343 6.26704 5.13706 6.26704 5.27909C6.26704 5.42112 6.15408 5.53475 6.01288 5.53475C5.87168 5.53475 5.75872 5.42112 5.75872 5.27909C5.75872 5.12285 5.87168 5.02343 6.01288 5.02343ZM5.80108 5.86142H7.2978L6.98716 6.37274L7.2978 6.92666H5.80108V5.86142ZM4.85504 7.35276H7.48136C7.5802 7.79305 7.62256 8.23335 7.62256 8.70206C7.62256 9.17076 7.5802 9.61106 7.48136 10.0514H4.85504C4.95388 9.61106 4.99624 9.17076 4.99624 8.70206C4.99624 8.23335 4.95388 7.77885 4.85504 7.35276ZM13.7224 14.6674H10.376V15.619C10.5878 15.7042 10.729 15.9031 10.729 16.1587C10.729 16.4712 10.4748 16.7269 10.1642 16.7269C9.85353 16.7269 9.59937 16.4712 9.59937 16.1587C9.59937 15.9173 9.75469 15.7042 9.96649 15.6332V14.6674H6.22468L5.9564 13.9998C6.04112 13.9714 6.26704 13.8294 6.19644 13.5311C6.0976 13.0766 5.30688 12.5937 5.30688 12.5937L4.95388 11.9546H15.7839L13.7224 14.6674ZM16.4476 11.5427H14.965V10.4775H16.4476L16.137 10.9888L16.4476 11.5427ZM6.21056 11.5427H4.7562V10.4775H6.19644L5.8858 10.9888L6.21056 11.5427ZM7.46723 13.2186H7.89056V13.6305H7.46723V13.2186ZM7.46728 12.3804H7.04395V12.7923H7.46728V12.3804ZM7.87678 12.3804H8.28599V12.7923H7.87678V12.3804ZM8.72394 12.3804H9.13316V12.7923H8.72394V12.3804ZM8.70958 13.2186H8.30036V13.6305H8.70958V13.2186ZM12.0421 12.3804H12.4513V12.7923H12.0421V12.3804ZM12.8747 13.2186H12.4514V13.6305H12.8747V13.2186ZM11.6326 13.2186H12.0559V13.6305H11.6326V13.2186ZM13.2989 12.3804H12.8756V12.7923H13.2989V12.3804ZM11.2096 12.3804H11.6188V12.7923H11.2096V12.3804Z" fill="#03070E"/>
<path d="M33.7329 7.10052H29.7337V16.273H27.1103V4.61084H36.3243V16.3058H33.7009V7.10052H33.7329Z" fill="white"/>
<path d="M39.2035 4.61084H41.8269L45.3462 9.52467L48.6734 4.61084H51.1369V16.3058H48.5135V8.83674L45.3462 13.3902H44.9622L41.7949 8.8695V16.273H39.2035V4.61084Z" fill="white"/>
<path d="M55.4884 9.09927H59.9675C59.4556 7.69064 58.1439 6.93719 56.4162 6.93719C55.6164 6.93719 54.6886 7.19926 53.9528 7.78892L52.961 5.79062C53.7288 5.10269 55.1365 4.44751 57.0561 4.44751C60.3514 4.44751 62.8148 6.83891 62.8148 10.4751C62.8148 14.2424 60.4474 16.5028 56.7042 16.5028C55.0725 16.5028 53.5368 15.9459 52.865 15.2907L53.9847 13.0303C54.5606 13.5217 55.5204 14.0131 56.6722 14.0131C58.1758 14.0131 59.6475 13.3252 60.0634 11.6217H55.4884V9.09927Z" fill="white"/>
<path d="M68.9248 14.8644C65.8854 14.8317 63.8379 13.2265 63.8379 10.2782C63.8379 7.3954 65.9174 5.79021 68.9248 5.69194V4.47986H71.5482V5.7247C74.5236 5.79021 76.6671 7.42816 76.6671 10.3109C76.6671 13.2265 74.5876 14.8644 71.5482 14.8972V16.4696H68.9248V14.8644ZM68.9248 12.4075V8.14885C67.2611 8.21437 66.6213 9.13162 66.6213 10.2782C66.6213 11.6213 67.3251 12.3748 68.9248 12.4075ZM71.5482 8.14885V12.3748C73.2759 12.342 73.8837 11.6213 73.8837 10.2454C73.8837 9.19714 73.2759 8.21437 71.5482 8.14885Z" fill="white"/>
<path d="M78.2351 8.34536C77.8192 7.9195 77.6273 7.16604 77.6273 6.57638C77.6273 4.8074 78.747 3.75912 79.4829 3.33325L80.6346 4.38154C80.1867 4.8074 79.9308 5.42982 79.9308 6.01948C79.9308 6.41259 80.0587 6.83845 80.3147 7.10052L78.2351 8.34536Z" fill="white"/>
<path d="M81.4984 14.5701C83.418 12.6373 86.0094 10.3114 86.0094 8.18207C86.0094 7.33034 85.5935 7.00275 84.9217 7.00275C84.1858 7.00275 83.8659 7.55965 83.6099 8.3131L81.4984 7.33034C81.8823 5.62687 83.1301 4.41479 85.2096 4.41479C87.5131 4.41479 88.6969 5.95446 88.6969 7.69068C88.6969 11.0976 85.6255 13.5545 84.7617 14.2425H89.1128V16.6666H81.4984V14.5701Z" fill="white"/>
<path d="M93.1763 4.54565H94.9999V16.6337H92.4724V8.24741L91.2887 9.09914L89.977 6.96981L93.1763 4.54565Z" fill="white"/>
</svg>
